<?xml version="1.0" encoding="utf-8"?>
<!-- Generator: Adobe Illustrator 26.3.1, SVG Export Plug-In . SVG Version: 6.00 Build 0)  -->
<svg version="1.1" id="Layer_1" xmlns="http://www.w3.org/2000/svg" xmlns:xlink="http://www.w3.org/1999/xlink" x="0px" y="0px"
	 viewBox="0 0 900 300" style="enable-background:new 0 0 900 300;" xml:space="preserve">
<style type="text/css">
	.st0{fill-rule:evenodd;clip-rule:evenodd;fill:#046307;}
	.st1{fill-rule:evenodd;clip-rule:evenodd;fill:#061E2A;}
	.st2{fill:none;stroke:#061E2A;stroke-width:5.9998;stroke-miterlimit:22.9256;}
	.st3{fill:#046307;}
</style>
<g>
	<path class="st0" d="M167.6,223.1c1.8-14.5-1.9-47.2,2.4-52.8c3.9-5,11.8-1.1,12.6-5.8c-2.5-2.5-9.8-1.2-13.7-1.1
		c-5,0.1-9.9,0.3-15,0.2c-4.9-0.1-26.2-1.6-28.8,0.8c1,4.9,5.9,0.3,13.9,4.5c4.7,2.5,4.2,8.3,4.2,14c0.1,6,1.4,32.9-1.4,36
		c-5,5.5-25.3,3.3-32.4,1.5c-49.7-12.8-54.2-70.8-39.2-96.1c4.5-7.5,12.2-14.5,20.1-17.4l0-11.1c-9,0.8-22.6,8.5-28.4,12.7
		c-37.3,26.6-42.9,106.5,33.9,121.6C114.4,233.8,154.9,233,167.6,223.1"/>
	<path class="st0" d="M95.8,95.6l0,111.8c5.2,3.3,17.4,7.8,24.7,7.1c0.1-11.3-0.5-119.8,0.6-131c1.3-13.7,7.3-8.1,14.5-11l0.5-2.3
		c-3-1.7-24.7-0.5-30.3-0.5c-3.2,0-23.2-1.1-25.2,0.3c-3.3,2.3,1.9,3,3.7,3.1C97.9,73.9,95.8,82.8,95.8,95.6"/>
	<path class="st0" d="M126.6,103.5c11.7,2.4,25.6,6.7,31.6,17.2c2.6,4.5,2.2,9.2,3.9,12.3c5.3,0.8,3.6-6.1,3.8-15.3
		c0.1-4.7,1.4-15.3,0.9-18.9c-2.4-1.4-34.9-5.6-40.1-5.2L126.6,103.5z"/>
	<path class="st0" d="M80.2,256.8c3.6,2,24.4,0.3,30.7,0.4c5.2,0.1,10.3,0.3,15.6,0.4c3.9,0.1,12.5,1.6,14.4-1.7
		c-0.9-2.7-3-2.1-6.3-2.2c-2.7-0.1-5.8-0.2-8.3-1.1c-5.2-1.8-4.7-6.9-5.4-12.6c-2.9-0.7-9.7-0.4-13.3-0.7c-3.5-0.3-9.1-1.5-12.3-1.3
		c-0.7,10-0.2,14.9-9.1,15.7C82.5,254.1,80.5,252.7,80.2,256.8"/>
	<path class="st1" d="M105.8,58.2l0.3-13.2l-13.4,0c-0.2,2.2-0.6,11.9,0.3,12.9C94,58.8,103.7,58.3,105.8,58.2"/>
	<path class="st1" d="M111.4,39.9l12.7,0.1c0.8-3.4,0.5-9.6,0.2-13.3l-13,0.1L111.4,39.9z"/>
	<path class="st1" d="M111.3,58l12.9,0.1c0.4-3.4,0.7-10.1-0.3-13.3l-12.4,0L111.3,58z"/>
	<polygon class="st1" points="92.8,39.6 106.2,39.9 106.1,26.9 92.9,26.8 	"/>
	<polyline class="st2" points="156.1,51.2 203.6,51.2 203.6,256.1 14.2,256.1 14.2,51.2 62,51.2 	"/>
</g>
<g>
	<path class="st3" d="M257.1,51.3v80.9h-10.4V51.3H257.1z"/>
	<path class="st3" d="M275.3,132.2V51.3h11.4l25.9,40.9c6,9.5,10.7,18,14.5,26.3l0.2-0.1c-1-10.8-1.2-20.6-1.2-33.2V51.3h9.8v80.9
		h-10.6l-25.7-41c-5.6-9-11-18.2-15.1-27l-0.4,0.1c0.6,10.2,0.8,19.9,0.8,33.4v34.6H275.3z"/>
	<path class="st3" d="M396.2,94.2h-31.4v29.2h35v8.8h-45.5V51.3H398V60h-33.2v25.6h31.4V94.2z"/>
	<path class="st3" d="M432.2,132.2l-26.4-80.9H417l12.6,39.8c3.5,10.9,6.5,20.8,8.6,30.2h0.2c2.3-9.4,5.6-19.6,9.2-30.1l13.7-40
		h11.2l-28.9,80.9H432.2z"/>
	<path class="st3" d="M491.8,51.3v80.9h-10.4V51.3H491.8z"/>
	<path class="st3" d="M525.4,60.2h-24.6v-8.9h59.9v8.9H536v72h-10.6V60.2z"/>
	<path class="st3" d="M573.8,106.7l-8.4,25.4h-10.8L582,51.3h12.6l27.6,80.9h-11.2l-8.6-25.4H573.8z M600.3,98.6l-7.9-23.3
		c-1.8-5.3-3-10.1-4.2-14.8h-0.2c-1.2,4.8-2.5,9.7-4.1,14.6l-7.9,23.4H600.3z"/>
	<path class="st3" d="M634.1,52.4c4.6-1,11.8-1.7,19.1-1.7c10.4,0,17.2,1.8,22.2,5.9c4.2,3.1,6.7,7.9,6.7,14.3
		c0,7.8-5.2,14.6-13.7,17.8v0.2c7.7,1.9,16.7,8.3,16.7,20.3c0,7-2.8,12.2-6.8,16.2c-5.6,5.2-14.8,7.6-28,7.6c-7.2,0-12.7-0.5-16.2-1
		V52.4z M644.6,85.5h9.5c11,0,17.5-5.8,17.5-13.6c0-9.5-7.2-13.2-17.8-13.2c-4.8,0-7.6,0.4-9.2,0.7V85.5z M644.6,124.2
		c2,0.4,5,0.5,8.8,0.5c10.8,0,20.8-4,20.8-15.7c0-11-9.5-15.6-20.9-15.6h-8.6V124.2z"/>
	<path class="st3" d="M699.2,51.3h10.4v72.1h34.6v8.8h-45V51.3z"/>
	<path class="st3" d="M797.7,94.2h-31.4v29.2h35v8.8h-45.5V51.3h43.7V60h-33.2v25.6h31.4V94.2z"/>
	<path class="st3" d="M308.2,243.6c-4.7,1.7-13.9,4.4-24.8,4.4c-12.2,0-22.3-3.1-30.2-10.7c-7-6.7-11.3-17.5-11.3-30.1
		c0.1-24.1,16.7-41.8,43.8-41.8c9.4,0,16.7,2,20.2,3.7l-2.5,8.5c-4.3-1.9-9.7-3.5-17.9-3.5c-19.7,0-32.5,12.2-32.5,32.5
		c0,20.5,12.4,32.6,31.2,32.6c6.8,0,11.5-1,13.9-2.2v-24.1h-16.4v-8.4h26.6V243.6z"/>
	<path class="st3" d="M324.2,167.4c5.3-1.1,12.8-1.7,20-1.7c11.2,0,18.4,2,23.4,6.6c4.1,3.6,6.4,9.1,6.4,15.4
		c0,10.7-6.7,17.8-15.2,20.6v0.4c6.2,2.2,10,7.9,11.9,16.3c2.6,11.3,4.6,19.1,6.2,22.2H366c-1.3-2.3-3.1-9.2-5.4-19.3
		c-2.4-11.2-6.7-15.4-16.2-15.7h-9.8v35h-10.4V167.4z M334.6,204.2h10.7c11.2,0,18.2-6.1,18.2-15.4c0-10.4-7.6-15-18.6-15.1
		c-5,0-8.6,0.5-10.3,1V204.2z"/>
	<path class="st3" d="M458.2,205.9c0,27.8-16.9,42.6-37.6,42.6c-21.4,0-36.4-16.6-36.4-41c0-25.7,16-42.5,37.6-42.5
		C443.9,165,458.2,181.9,458.2,205.9z M395.4,207.2c0,17.3,9.4,32.8,25.8,32.8c16.6,0,25.9-15.2,25.9-33.6
		c0-16.1-8.4-32.9-25.8-32.9C404.1,173.5,395.4,189.4,395.4,207.2z"/>
	<path class="st3" d="M482.2,166.3v47.9c0,18.1,8,25.8,18.8,25.8c12,0,19.7-7.9,19.7-25.8v-47.9h10.6v47.2c0,24.8-13.1,35-30.6,35
		c-16.6,0-29-9.5-29-34.6v-47.6H482.2z"/>
	<path class="st3" d="M549.4,167.2c5-0.8,11.6-1.6,20-1.6c10.3,0,17.9,2.4,22.7,6.7c4.4,3.8,7.1,9.7,7.1,16.9
		c0,7.3-2.2,13.1-6.2,17.3c-5.5,5.9-14.5,8.9-24.7,8.9c-3.1,0-6-0.1-8.4-0.7v32.4h-10.4V167.2z M559.8,206.2
		c2.3,0.6,5.2,0.8,8.6,0.8c12.6,0,20.3-6.1,20.3-17.3c0-10.7-7.6-15.8-19.1-15.8c-4.6,0-8,0.4-9.8,0.8V206.2z"/>
</g>
</svg>
